<?xml version="1.0" standalone="no"?>
<!DOCTYPE svg PUBLIC "-//W3C//DTD SVG 20010904//EN"
 "http://www.w3.org/TR/2001/REC-SVG-20010904/DTD/svg10.dtd">
<svg version="1.0" xmlns="http://www.w3.org/2000/svg"
 width="900.000000pt" height="900.000000pt" viewBox="0 0 900.000000 900.000000"
 preserveAspectRatio="xMidYMid meet">
<metadata>
Created by potrace 1.14, written by Peter Selinger 2001-2017
</metadata>
<g transform="translate(0.000000,900.000000) scale(0.100000,-0.100000)"
fill="#000000" stroke="none">
<path d="M1425 8146 c-16 -8 -195 -180 -397 -383 -278 -278 -370 -376 -378
-402 -21 -72 29 -154 104 -171 77 -17 94 -4 344 243 l232 231 0 -2923 c0
-2625 2 -2929 16 -2984 48 -188 192 -335 394 -403 53 -18 158 -19 3025 -22
l2970 -2 -233 -233 c-251 -251 -262 -266 -241 -342 12 -42 68 -92 113 -100 69
-13 100 12 478 391 304 306 358 365 369 402 26 88 25 89 -374 491 -203 203
-376 369 -394 377 -103 45 -210 -39 -193 -151 7 -45 17 -57 251 -291 l244
-244 -2960 0 c-2954 0 -2960 0 -3005 21 -55 25 -114 80 -143 134 l-22 40 -3
2930 -2 2929 248 -247 c259 -257 256 -255 331 -248 92 8 150 117 107 199 -8
15 -178 190 -378 389 -366 366 -387 384 -453 383 -11 -1 -33 -7 -50 -14z"/>
<path d="M7385 7081 c-3 -5 -88 -227 -189 -493 -286 -752 -288 -758 -298 -758
-5 0 -185 86 -399 190 -215 105 -394 190 -399 190 -5 0 -24 -26 -43 -57 -19
-32 -139 -231 -267 -443 -128 -212 -252 -416 -275 -455 -23 -38 -160 -266
-305 -505 -144 -239 -335 -554 -422 -700 -88 -145 -166 -272 -172 -282 -11
-16 -28 -4 -173 120 -88 75 -229 196 -313 267 -85 72 -190 162 -234 200 -45
39 -88 76 -97 83 -18 14 -5 27 -479 -513 -163 -186 -306 -349 -335 -381 -5 -6
-111 -126 -234 -267 -124 -141 -229 -257 -234 -257 -11 0 -123 94 -485 408
l-62 54 0 -185 0 -185 127 -110 c71 -60 199 -171 285 -246 87 -75 161 -136
165 -135 4 0 49 47 98 105 137 158 187 216 345 395 265 302 494 562 644 734
82 94 155 176 162 184 16 18 3 28 369 -285 297 -254 467 -399 497 -422 14 -12
21 -6 53 50 21 35 144 239 275 453 228 375 982 1616 1138 1875 42 69 77 126
78 128 2 3 212 -99 637 -308 115 -56 209 -101 211 -99 2 2 68 175 149 384 115
301 404 1051 447 1161 8 20 0 25 -120 68 -142 51 -137 50 -145 37z"/>
<path d="M3880 5679 c-99 -63 -1361 -846 -1462 -908 l-37 -22 -193 62 c-106
34 -199 64 -206 67 -10 3 -12 -13 -10 -73 l3 -78 212 -69 213 -69 292 182
c161 100 394 245 518 322 124 76 336 209 473 294 136 85 251 153 257 151 5 -2
161 -154 347 -338 186 -184 408 -404 494 -488 l156 -152 37 59 c20 32 36 63
36 68 0 13 -1036 1027 -1052 1031 -7 1 -42 -17 -78 -39z"/>
<path d="M6300 4633 c-52 -64 -197 -240 -322 -390 l-228 -274 -160 156 c-88
85 -164 155 -168 155 -4 0 -22 -27 -40 -60 l-33 -59 202 -198 c110 -109 206
-199 213 -200 6 -1 39 32 73 75 73 91 364 450 463 572 38 47 76 94 85 105 10
14 17 16 22 9 8 -11 175 -193 468 -509 77 -83 214 -231 305 -330 214 -233 314
-339 321 -343 3 -1 30 20 59 47 l54 50 -74 78 c-41 43 -178 190 -305 328 -126
137 -264 286 -305 330 -41 44 -102 110 -135 146 -126 137 -398 429 -399 428 0
0 -44 -53 -96 -116z"/>
</g>
</svg>
